<svg id="np_bar-chart_2034257_000000" xmlns="http://www.w3.org/2000/svg" width="51.47" height="52.669" viewBox="0 0 51.47 52.669">
  <path id="np_bar-chart_2034257_000000-2" data-name="np_bar-chart_2034257_000000" d="M51.671,6a.6.6,0,0,0-.009,1.2l2.247.133-14.009,14-8.552-8.55,0,0a.588.588,0,0,0-.465-.173.6.6,0,0,0-.437.238L21.885,24.262l-5.5-5.494a.6.6,0,0,0-.919.089L9.48,27.83a.6.6,0,1,0,.994.666l5.585-8.367,5.464,5.466a.6.6,0,0,0,.9-.068l8.562-11.411L39.479,22.6v0a.6.6,0,0,0,.849,0L54.772,8.163l.136,2.277h0a.6.6,0,1,0,1.195-.072l-.213-3.589a.6.6,0,0,0-.561-.566l-3.591-.208h0a.494.494,0,0,0-.061,0ZM47.1,27.563a2.994,2.994,0,0,0-2.99,2.988V55.679a3,3,0,0,0,2.99,2.99h8.379a3,3,0,0,0,2.99-2.99l0-25.126a3,3,0,0,0-2.99-2.988Zm0,1.2h8.379a1.774,1.774,0,0,1,1.793,1.793V55.681a1.776,1.776,0,0,1-1.793,1.793H47.1a1.774,1.774,0,0,1-1.793-1.793V30.553A1.776,1.776,0,0,1,47.1,28.76ZM28.548,32.351a3,3,0,0,0-2.995,2.988v20.34a3,3,0,0,0,2.995,2.99h8.377a3,3,0,0,0,2.995-2.99V35.339a3,3,0,0,0-2.995-2.988Zm0,1.2h8.377a1.778,1.778,0,0,1,1.8,1.793v20.34a1.778,1.778,0,0,1-1.8,1.793H28.548a1.778,1.778,0,0,1-1.8-1.793l0-20.342a1.78,1.78,0,0,1,1.8-1.793ZM9.994,35.94A3,3,0,0,0,7,38.93V55.679a3,3,0,0,0,2.99,2.99h8.379a3,3,0,0,0,2.99-2.99V38.93a3,3,0,0,0-2.99-2.99Zm0,1.2h8.379a1.774,1.774,0,0,1,1.793,1.793V55.679a1.776,1.776,0,0,1-1.793,1.793H9.992A1.774,1.774,0,0,1,8.2,55.679V38.93a1.776,1.776,0,0,1,1.793-1.793Z" transform="translate(-7.004 -6)" fill="#36c840"/>
</svg>
