<svg id="np_reading_3503886_000000" xmlns="http://www.w3.org/2000/svg" width="64.279" height="46.241" viewBox="0 0 64.279 46.241">
  <path id="np_reading_3503886_000000-2" data-name="np_reading_3503886_000000" d="M66.366,18.978H62.22V17.941a1.042,1.042,0,0,0-.852-1.023,37.671,37.671,0,0,0-5.852-.605,39.274,39.274,0,0,0-15.759,2.734c-.356.139-.71.279-1.047.429l-3.447,1.481-3.439-1.478c-.345-.15-.7-.292-1.053-.429A39.448,39.448,0,0,0,9.16,16.921a1.035,1.035,0,0,0-.852,1.02v1.036H4.162a1.033,1.033,0,0,0-.734.3,1.045,1.045,0,0,0-.3.734v41.47a1.037,1.037,0,0,0,1.5.927,43.1,43.1,0,0,1,21.434-4.494l9.155.455.024,0,.027,0a.1.1,0,0,0,.027-.005l.024,0,9.155-.455,0,0A43.158,43.158,0,0,1,65.9,62.41a1.037,1.037,0,0,0,1.5-.927V20.014a1.033,1.033,0,0,0-1.036-1.036Zm-26.828,2.4c.319-.139.648-.271.983-.4a36.929,36.929,0,0,1,8.873-2.3,37.307,37.307,0,0,1,6.064-.292,34.373,34.373,0,0,1,4.687.431V51.968A39.5,39.5,0,0,0,38.71,54.724L36.3,55.761V22.77ZM10.383,18.814a37.41,37.41,0,0,1,19.629,2.164c.329.129.659.26.986.4l3.23,1.387V55.76l-2.413-1.036c-.758-.324-1.527-.616-2.3-.892-.228-.08-.455-.155-.683-.233-.589-.2-1.184-.383-1.778-.552-.214-.062-.426-.126-.64-.182-.779-.209-1.564-.4-2.352-.554-.147-.029-.295-.051-.442-.08q-.984-.189-1.977-.324-.378-.052-.755-.1-.94-.112-1.883-.177c-.193-.013-.386-.032-.581-.043-.72-.04-1.444-.064-2.167-.064-.062,0-.123.005-.185.008-.656,0-1.312.037-1.969.072-.292.016-.584.016-.878.04-.948.072-1.9.177-2.842.319ZM5.2,59.84V21.051H8.308V53.19a1.038,1.038,0,0,0,1.221,1.02c.873-.158,1.752-.284,2.627-.38.305-.035.611-.046.919-.072.573-.048,1.144-.1,1.717-.121.362-.013.723-.008,1.085-.011.517-.005,1.031-.011,1.548.005.383.011.763.04,1.146.064.493.029.986.062,1.476.112.391.04.779.094,1.168.145.479.064.961.134,1.438.217.391.067.779.147,1.168.228.474.1.945.2,1.414.319.383.1.766.2,1.149.305.471.131.937.276,1.4.426.372.121.745.244,1.114.378.158.056.316.123.474.182l-3.214-.161v0a45.29,45.29,0,0,0-20.962,4Zm60.132,0a45.271,45.271,0,0,0-18.7-4.052q-1.129,0-2.263.056L41.154,56c.155-.059.308-.123.466-.179.375-.134.753-.26,1.133-.383.461-.15.924-.289,1.39-.423.386-.107.771-.212,1.16-.308.466-.115.937-.22,1.406-.316.391-.08.779-.158,1.173-.228.477-.083.956-.15,1.436-.214.388-.051.779-.107,1.17-.145.49-.051.983-.08,1.473-.112.383-.024.766-.054,1.149-.064.514-.016,1.028-.011,1.543-.005.362,0,.726,0,1.087.011.573.021,1.144.072,1.717.121.305.027.611.037.916.072.878.1,1.754.22,2.627.378l0,0a1.044,1.044,0,0,0,.852-.225,1.031,1.031,0,0,0,.37-.8V21.051h3.109Zm-25.35-28.2a1.032,1.032,0,0,1,.667-1.3A45.451,45.451,0,0,1,55.5,28.07a1.036,1.036,0,0,1,1.018,1.055,1.064,1.064,0,0,1-1.053,1.02A43.712,43.712,0,0,0,41.284,32.31a1.038,1.038,0,0,1-.79-.062,1.027,1.027,0,0,1-.514-.605Zm0,6.222a1.034,1.034,0,0,1,.667-1.307A45.831,45.831,0,0,1,55.5,34.292a1.035,1.035,0,0,1,1.018,1.053,1.059,1.059,0,0,1-1.053,1.02,43.641,43.641,0,0,0-14.179,2.167,1.039,1.039,0,0,1-.79-.064,1.022,1.022,0,0,1-.514-.6Zm0,6.222v0a1.032,1.032,0,0,1,.667-1.3A45.762,45.762,0,0,1,55.5,40.511a1.036,1.036,0,0,1,1.018,1.055,1.059,1.059,0,0,1-1.053,1.02A43.785,43.785,0,0,0,41.284,44.75a1.032,1.032,0,0,1-1.3-.667ZM14.012,29.126A1.036,1.036,0,0,1,15.03,28.07,45.758,45.758,0,0,1,29.88,30.339a1.032,1.032,0,0,1,.608.514,1.021,1.021,0,0,1,.064.793,1.032,1.032,0,0,1-.517.605,1.021,1.021,0,0,1-.793.059,43.422,43.422,0,0,0-14.179-2.164,1.055,1.055,0,0,1-1.053-1.02Zm0,6.222a1.036,1.036,0,0,1,1.018-1.055A45.828,45.828,0,0,1,29.88,36.558a1.051,1.051,0,0,1,.608.514,1.039,1.039,0,0,1-.453,1.4,1.045,1.045,0,0,1-.793.059,43.355,43.355,0,0,0-14.179-2.167,1.047,1.047,0,0,1-1.053-1.018Zm0,6.222v0a1.032,1.032,0,0,1,1.018-1.053A45.529,45.529,0,0,1,29.88,42.779a1.032,1.032,0,0,1,.608.514,1.035,1.035,0,0,1-1.245,1.457,43.493,43.493,0,0,0-14.179-2.164,1.044,1.044,0,0,1-1.053-1.02Z" transform="translate(-3.125 -16.279)" fill="#0092ff"/>
</svg>
