<svg id="np_art_2529196_000000" xmlns="http://www.w3.org/2000/svg" width="72" height="71.338" viewBox="0 0 72 71.338">
  <path id="Path_415" data-name="Path 415" d="M36.76,84.457a4.729,4.729,0,1,1,4.729-4.729A4.733,4.733,0,0,1,36.76,84.457Zm0-7.627a2.9,2.9,0,1,0,2.9,2.9A2.9,2.9,0,0,0,36.76,76.83Z" transform="translate(-10.676 -20.087)" fill="#3B82F6"/>
  <path id="Path_416" data-name="Path 416" d="M29.307,80.264c-13.576,0-24.619-12.581-24.619-28.042a28.824,28.824,0,0,1,7.2-19.381,26.254,26.254,0,0,1,17.346-8.658c1.092-.092,2.2-.14,3.292-.14a43.242,43.242,0,0,1,23.921,7.578.917.917,0,0,1,.412.766v9.906a.917.917,0,0,1-.583.854A6.706,6.706,0,0,0,52.279,49.5c0,3.7,2.639,6.712,5.885,6.712.406,0,.479,0,.619-1.284.189-1.727.5-4.567,5.375-4.8a2.119,2.119,0,0,1-.11-.625,6.751,6.751,0,0,0-3.881-6.312.914.914,0,0,1-.564-.845v-6.6a.915.915,0,0,1,1.492-.711A59.062,59.062,0,0,1,72.484,47.394c2.633,3.9,4.2,7.517,4.2,9.671,0,3.673-2.013,7.1-5.668,9.655a23.278,23.278,0,0,1-13.264,3.853A27.071,27.071,0,0,1,54.72,70.4a11.753,11.753,0,0,0-9.5,3.219,22.918,22.918,0,0,1-15.916,6.644Zm3.215-54.388c-1.04,0-2.1.046-3.136.131C16.348,27.109,6.518,38.378,6.518,52.222c0,14.454,10.223,26.211,22.789,26.211a21.1,21.1,0,0,0,14.64-6.126,13.506,13.506,0,0,1,9.423-3.81,13.9,13.9,0,0,1,1.553.088,24.826,24.826,0,0,0,2.828.159c9.43,0,17.1-5.238,17.1-11.678,0-3.337-5.064-12.05-13.42-19.35v4.045a8.691,8.691,0,0,1,4.448,7.718c.012.061.061.207.095.305a1.735,1.735,0,0,1-.024,1.635,1.291,1.291,0,0,1-1.123.522c-3.874,0-4.036,1.477-4.225,3.188-.119,1.089-.32,2.913-2.438,2.913-4.256,0-7.715-3.832-7.715-8.542a8.638,8.638,0,0,1,4.576-7.8v-8.81a41.263,41.263,0,0,0-22.5-7.011Z" transform="translate(-4.688 -8.926)" fill="#3B82F6"/>
  <path id="Path_417" data-name="Path 417" d="M74.632,39.02a.935.935,0,0,1-.351-.07,5.214,5.214,0,0,0-3.9-.043.913.913,0,0,1-1.245-.854V7.89a3.2,3.2,0,0,1,6.407,0V38.1a.917.917,0,0,1-.915.915Zm-2.352-2.3a6.858,6.858,0,0,1,1.437.149V7.891a1.373,1.373,0,1,0-2.746,0V36.842a7.2,7.2,0,0,1,1.309-.122Z" transform="translate(-18.805 -4.687)" fill="#3B82F6"/>
  <path id="Path_418" data-name="Path 418" d="M69.107,71.612a7.779,7.779,0,0,1-5.72-13.051.915.915,0,0,1,1.556.381,6,6,0,0,0,5.625,4.738c.406,0,.479,0,.619-1.284.14-1.266.351-3.176,2.453-4.17a.918.918,0,0,1,1.049.189,7.78,7.78,0,0,1-5.583,13.2ZM63.821,61.106a5.949,5.949,0,1,0,10.031-.86,3.357,3.357,0,0,0-.845,2.349c-.119,1.089-.32,2.913-2.438,2.913a7.681,7.681,0,0,1-6.748-4.4Z" transform="translate(-17.094 -16.394)" fill="#3B82F6"/>
  <path id="Path_419" data-name="Path 419" d="M71,62.787A7.909,7.909,0,0,1,63.6,56.7a9.446,9.446,0,0,1-.323-2.453,8.539,8.539,0,0,1,5.159-8.06,7.02,7.02,0,0,1,5.256.058,8.6,8.6,0,0,1,5.012,7.984c.012.061.061.207.095.305a1.735,1.735,0,0,1-.024,1.635,1.291,1.291,0,0,1-1.123.522,6.779,6.779,0,0,0-2.81.47c-1.1.519-1.269,1.373-1.416,2.718-.116,1.086-.317,2.91-2.434,2.91Zm0-15.253a5.19,5.19,0,0,0-1.891.357,6.706,6.706,0,0,0-3.993,6.355,7.635,7.635,0,0,0,.259,1.974A6,6,0,0,0,71,60.957c.406,0,.479,0,.619-1.284.14-1.266.351-3.176,2.453-4.17a7.609,7.609,0,0,1,2.923-.631,2.1,2.1,0,0,1-.11-.625A6.751,6.751,0,0,0,73,47.933a5.233,5.233,0,0,0-2-.4Z" transform="translate(-17.522 -13.67)" fill="#3B82F6"/>
  <path id="Path_420" data-name="Path 420" d="M21.135,70.786a4.729,4.729,0,1,1,4.729-4.729,4.733,4.733,0,0,1-4.729,4.729Zm0-7.627a2.9,2.9,0,1,0,2.9,2.9A2.9,2.9,0,0,0,21.135,63.159Z" transform="translate(-7.254 -17.093)" fill="#3B82F6"/>
  <path id="Path_421" data-name="Path 421" d="M25.041,49.3a4.729,4.729,0,1,1,4.729-4.729A4.733,4.733,0,0,1,25.041,49.3Zm0-7.627a2.9,2.9,0,1,0,2.9,2.9A2.9,2.9,0,0,0,25.041,41.674Z" transform="translate(-8.11 -12.387)" fill="#3B82F6"/>
  <path id="Path_422" data-name="Path 422" d="M46.526,43.442a4.729,4.729,0,1,1,4.729-4.729A4.733,4.733,0,0,1,46.526,43.442Zm0-7.627a2.9,2.9,0,1,0,2.9,2.9A2.9,2.9,0,0,0,46.526,35.815Z" transform="translate(-12.815 -11.104)" fill="#3B82F6"/>
</svg>
