<svg id="np_email_1198068_000000" xmlns="http://www.w3.org/2000/svg" width="56.894" height="56.894" viewBox="0 0 56.894 56.894">
  <path id="np_email_1198068_000000-2" data-name="np_email_1198068_000000" d="M28.447,56.894A28.447,28.447,0,1,0,8.332,48.561a28.447,28.447,0,0,0,20.115,8.332ZM14.6,20.437a4.311,4.311,0,0,1,4.147-2.658H38.09a4.373,4.373,0,0,1,4.16,2.549.77.77,0,0,1,.1.7.762.762,0,0,1-.513.491l-12.823,6.7a1.071,1.071,0,0,1-1.065,0L14.957,21.466a.675.675,0,0,1-.358-1.029Zm.847,4.274q6.061,3.167,12.108,6.314a1.759,1.759,0,0,0,1.791,0q6.021-3.157,12.056-6.258a1.35,1.35,0,0,1,.376-.142.676.676,0,0,1,.893.7v8.038A12.536,12.536,0,0,1,42.6,35.45a4.339,4.339,0,0,1-4.347,3.665H18.734a4.392,4.392,0,0,1-4.347-3.271,4.584,4.584,0,0,1-.164-1.138v-9.29c0-.78.5-1.076,1.222-.707Z" fill="#fff"/>
</svg>
