<svg xmlns="http://www.w3.org/2000/svg" width="190.429" height="63.075" viewBox="0 0 190.429 63.075">
  <g id="Logo_-_Wide" data-name="Logo - Wide" transform="translate(0 0.428)">
    <g id="Webfor_Logo_Horizontal_" data-name="Webfor Logo (Horizontal)" transform="translate(95.214 31.11)">
      <g id="Group_663" data-name="Group 663" transform="translate(-95.214 -31.538)">
        <path id="Path_340" data-name="Path 340" d="M40.507,53.467,33.19,41.893l3.326-5.188,4.057,6.385L58.8,15.554a31.594,31.594,0,0,0-54.475,0l18.624,27.6L36.982,21.141H26.539L30.4,27.194l-3.326,5.188L16.429,15.554H47.158L23.08,53.4l-.266-.333L1.6,21.54A32.991,32.991,0,0,0,0,31.517a31.528,31.528,0,1,0,63.055,0,32.658,32.658,0,0,0-1.6-9.977Z" transform="translate(0 0.03)" fill="#FFFFFF"/>
        <g id="Group_662" data-name="Group 662" transform="translate(78.22 17.775)">
          <path id="Path_341" data-name="Path 341" d="M117.6,29.9h4.856l4.855,18.291h.067L132.9,29.9h4.589l5.388,18.291h.067L147.864,29.9h4.722L145.27,54.843h-4.323l-5.853-18.69h-.067l-5.853,18.69H124.85Z" transform="translate(-117.6 -27.767)" fill="#FFFFFF"/>
          <path id="Path_342" data-name="Path 342" d="M184.525,50.345v.532a1.264,1.264,0,0,1-.066.532H171.622a4.39,4.39,0,0,0,.466,1.663,4.124,4.124,0,0,0,1.064,1.33,5.72,5.72,0,0,0,1.53.865,4.989,4.989,0,0,0,1.729.333,5.454,5.454,0,0,0,2.661-.6,5.188,5.188,0,0,0,1.8-1.6l2.794,2.261a8.414,8.414,0,0,1-7.25,3.392,10.842,10.842,0,0,1-3.658-.6,8.248,8.248,0,0,1-2.86-1.729,7.782,7.782,0,0,1-1.929-2.794,9.312,9.312,0,0,1-.665-3.725,9.777,9.777,0,0,1,.665-3.725,8.248,8.248,0,0,1,4.722-4.722,8.78,8.78,0,0,1,3.525-.665,8.647,8.647,0,0,1,3.259.6,6.851,6.851,0,0,1,2.594,1.729,7.649,7.649,0,0,1,1.729,2.86A9.844,9.844,0,0,1,184.525,50.345Zm-4.19-1.929a5.653,5.653,0,0,0-.2-1.53,3.725,3.725,0,0,0-.732-1.33,3.658,3.658,0,0,0-1.264-.931,5.055,5.055,0,0,0-1.8-.333,4.789,4.789,0,0,0-3.193,1.131,4.057,4.057,0,0,0-1.463,2.927h8.647Z" transform="translate(-134.241 -31.517)" fill="#FFFFFF"/>
          <path id="Path_343" data-name="Path 343" d="M200.957,27.333V39.172h.133a4.723,4.723,0,0,1,.8-.865,5.521,5.521,0,0,1,1.2-.865,8.846,8.846,0,0,1,1.6-.665,6.718,6.718,0,0,1,2.062-.266,7.849,7.849,0,0,1,3.326.665,8.048,8.048,0,0,1,2.594,1.862,8.447,8.447,0,0,1,1.663,2.794,9.977,9.977,0,0,1,.6,3.459,10.31,10.31,0,0,1-.6,3.525,8.713,8.713,0,0,1-1.663,2.86,7.915,7.915,0,0,1-6.053,2.661,7.516,7.516,0,0,1-3.392-.8,5.787,5.787,0,0,1-2.461-2.261h-.066v2.528H196.7V27.2h4.257Zm9.711,18.092a6.186,6.186,0,0,0-.333-1.929,5.454,5.454,0,0,0-.931-1.729,4.722,4.722,0,0,0-1.53-1.264,4.39,4.39,0,0,0-2.128-.466,4.124,4.124,0,0,0-2.062.466,5.854,5.854,0,0,0-1.6,1.264,6.451,6.451,0,0,0-1,1.729,6.984,6.984,0,0,0-.333,2,6.185,6.185,0,0,0,.333,1.929,4.523,4.523,0,0,0,1,1.729,4.989,4.989,0,0,0,1.6,1.264,4.257,4.257,0,0,0,2.062.466,4.39,4.39,0,0,0,2.128-.466,4.722,4.722,0,0,0,1.53-1.264,6.252,6.252,0,0,0,.931-1.729A6.983,6.983,0,0,0,210.668,45.425Z" transform="translate(-144.088 -26.863)" fill="#FFFFFF"/>
          <path id="Path_344" data-name="Path 344" d="M226.993,40.266H223.8V36.874h3.193V34.347a14.1,14.1,0,0,1,.333-2.927,6.385,6.385,0,0,1,1.131-2.461,4.855,4.855,0,0,1,2.128-1.663,7.715,7.715,0,0,1,3.259-.6h1.2l1,.2-.266,3.592-.732-.2h-.865a2.993,2.993,0,0,0-1.463.333,2.328,2.328,0,0,0-.865.931,3.992,3.992,0,0,0-.4,1.264,9.043,9.043,0,0,0-.133,1.33v2.727h3.924v3.392H231.25v13.5h-4.257Z" transform="translate(-153.162 -26.693)" fill="#FFFFFF"/>
          <path id="Path_345" data-name="Path 345" d="M240.5,50.112a9.445,9.445,0,0,1,.732-3.658,9.113,9.113,0,0,1,1.929-2.794,7.716,7.716,0,0,1,2.927-1.8,10.775,10.775,0,0,1,3.592-.665,9.312,9.312,0,0,1,3.592.665,7.716,7.716,0,0,1,2.927,1.8,8.846,8.846,0,0,1,2.661,6.452,9.445,9.445,0,0,1-.732,3.658,8.647,8.647,0,0,1-1.929,2.86,8.847,8.847,0,0,1-2.927,1.862,10.044,10.044,0,0,1-7.183,0,8.846,8.846,0,0,1-2.927-1.862,8.647,8.647,0,0,1-1.929-2.86A8.38,8.38,0,0,1,240.5,50.112Zm4.257,0a5.254,5.254,0,0,0,.333,2,3.991,3.991,0,0,0,.931,1.729,4.723,4.723,0,0,0,1.53,1.264,5.388,5.388,0,0,0,4.39,0,4.723,4.723,0,0,0,1.53-1.264,6.253,6.253,0,0,0,.931-1.729,6.985,6.985,0,0,0,.333-2,6.186,6.186,0,0,0-.333-1.929,5.454,5.454,0,0,0-.931-1.729,4.722,4.722,0,0,0-1.53-1.264,5.388,5.388,0,0,0-4.39,0,4.723,4.723,0,0,0-1.53,1.264,6.252,6.252,0,0,0-.931,1.729,6.185,6.185,0,0,0-.333,1.929Z" transform="translate(-158.753 -31.55)" fill="#FFFFFF"/>
          <path id="Path_346" data-name="Path 346" d="M271.133,41.732h4.057v2.794h.067a5.853,5.853,0,0,1,2-2.394,5.122,5.122,0,0,1,2.927-.931h1v3.858l-.732-.133h-.6a4.789,4.789,0,0,0-2.328.532,4.323,4.323,0,0,0-1.4,1.264,4.457,4.457,0,0,0-.665,1.53,5.387,5.387,0,0,0-.2,1.264V58.56H271V41.732Z" transform="translate(-168.968 -31.551)" fill="#FFFFFF"/>
        </g>
      </g>
    </g>
  </g>
</svg>
