<svg id="Webfor_Logo_Horizontal_White_" data-name="Webfor Logo (Horizontal White)" xmlns="http://www.w3.org/2000/svg" width="286.3" height="94.83" viewBox="0 0 286.3 94.83">
  <g id="Webfor_Logo_Horizontal_White_2" data-name="Webfor Logo (Horizontal White)" transform="translate(143.15 47.415)">
    <g id="Webfor_Logo_Horizontal_White_3" data-name="Webfor Logo (Horizontal White)" transform="translate(-143.15 -47.415)">
      <g id="Group_700" data-name="Group 700" transform="translate(0 0.03)">
        <path id="Path_377" data-name="Path 377" d="M60.9,80.4,49.9,63l5-7.8L61,64.8,88.4,23.4a47.5,47.5,0,0,0-81.9,0l28,41.5L55.6,31.8H39.9l5.8,9.1-5,7.8-16-25.3H70.9L34.7,80.3l-.4-.5L2.4,32.4A49.6,49.6,0,0,0,0,47.4a47.4,47.4,0,1,0,94.8,0,49.1,49.1,0,0,0-2.4-15Z" fill="#fff"/>
        <path id="Path_378" data-name="Path 378" d="M117.6,29.9h7.3l7.3,27.5h.1l8.3-27.5h6.9l8.1,27.5h.1l7.4-27.5h7.1l-11,37.5h-6.5l-8.8-28.1h-.1L135,67.4h-6.5Z" fill="#fff"/>
        <path id="Path_379" data-name="Path 379" d="M193.2,55v.8a1.9,1.9,0,0,1-.1.8H173.8a6.6,6.6,0,0,0,.7,2.5,6.2,6.2,0,0,0,1.6,2,8.6,8.6,0,0,0,2.3,1.3,7.5,7.5,0,0,0,2.6.5,8.2,8.2,0,0,0,4-.9,7.8,7.8,0,0,0,2.7-2.4l4.2,3.4c-2.5,3.4-6.1,5.1-10.9,5.1a16.3,16.3,0,0,1-5.5-.9,12.4,12.4,0,0,1-4.3-2.6,11.7,11.7,0,0,1-2.9-4.2,14,14,0,0,1-1-5.6,14.7,14.7,0,0,1,1-5.6,12.4,12.4,0,0,1,7.1-7.1,13.2,13.2,0,0,1,5.3-1,13,13,0,0,1,4.9.9,10.3,10.3,0,0,1,3.9,2.6,11.5,11.5,0,0,1,2.6,4.3,14.8,14.8,0,0,1,1.1,6.1m-6.3-2.9a8.5,8.5,0,0,0-.3-2.3,5.6,5.6,0,0,0-1.1-2,5.5,5.5,0,0,0-1.9-1.4,7.6,7.6,0,0,0-2.7-.5,7.2,7.2,0,0,0-4.8,1.7,6.1,6.1,0,0,0-2.2,4.4h13Z" fill="#fff"/>
        <path id="Path_380" data-name="Path 380" d="M203.1,27.4V45.2h.2a7.1,7.1,0,0,1,1.2-1.3,8.3,8.3,0,0,1,1.8-1.3,13.3,13.3,0,0,1,2.4-1,10.1,10.1,0,0,1,3.1-.4,11.8,11.8,0,0,1,5,1,12.1,12.1,0,0,1,3.9,2.8,12.7,12.7,0,0,1,2.5,4.2,15,15,0,0,1,.9,5.2,15.5,15.5,0,0,1-.9,5.3,13.1,13.1,0,0,1-2.5,4.3,11.9,11.9,0,0,1-9.1,4,11.3,11.3,0,0,1-5.1-1.2,8.7,8.7,0,0,1-3.7-3.4h-.1v3.8h-6v-40h6.4Zm14.6,27.2a9.3,9.3,0,0,0-.5-2.9,8.2,8.2,0,0,0-1.4-2.6,7.1,7.1,0,0,0-2.3-1.9,6.6,6.6,0,0,0-3.2-.7,6.2,6.2,0,0,0-3.1.7,8.8,8.8,0,0,0-2.4,1.9,9.7,9.7,0,0,0-1.5,2.6,10.5,10.5,0,0,0-.5,3,9.3,9.3,0,0,0,.5,2.9,6.8,6.8,0,0,0,1.5,2.6,7.5,7.5,0,0,0,2.4,1.9,6.4,6.4,0,0,0,3.1.7,6.6,6.6,0,0,0,3.2-.7,7.1,7.1,0,0,0,2.3-1.9,9.4,9.4,0,0,0,1.4-2.6,10.5,10.5,0,0,0,.5-3" fill="#fff"/>
        <path id="Path_381" data-name="Path 381" d="M228.6,47.1h-4.8V42h4.8V38.2a21.2,21.2,0,0,1,.5-4.4,9.6,9.6,0,0,1,1.7-3.7,7.3,7.3,0,0,1,3.2-2.5,11.6,11.6,0,0,1,4.9-.9h1.8l1.5.3-.4,5.4-1.1-.3h-1.3a4.5,4.5,0,0,0-2.2.5,3.5,3.5,0,0,0-1.3,1.4,6,6,0,0,0-.6,1.9,13.6,13.6,0,0,0-.2,2V42H241v5.1h-6V67.4h-6.4Z" fill="#fff"/>
        <path id="Path_382" data-name="Path 382" d="M240.5,54.6a14.2,14.2,0,0,1,1.1-5.5,13.7,13.7,0,0,1,2.9-4.2,11.6,11.6,0,0,1,4.4-2.7,16.2,16.2,0,0,1,5.4-1,14,14,0,0,1,5.4,1,11.6,11.6,0,0,1,4.4,2.7,13.3,13.3,0,0,1,4,9.7,14.2,14.2,0,0,1-1.1,5.5,13,13,0,0,1-2.9,4.3,13.3,13.3,0,0,1-4.4,2.8,15.1,15.1,0,0,1-10.8,0,13.3,13.3,0,0,1-4.4-2.8,13,13,0,0,1-2.9-4.3,12.6,12.6,0,0,1-1.1-5.5m6.4,0a7.9,7.9,0,0,0,.5,3,6,6,0,0,0,1.4,2.6,7.1,7.1,0,0,0,2.3,1.9,8.1,8.1,0,0,0,6.6,0,7.1,7.1,0,0,0,2.3-1.9,9.4,9.4,0,0,0,1.4-2.6,10.5,10.5,0,0,0,.5-3,9.3,9.3,0,0,0-.5-2.9,8.2,8.2,0,0,0-1.4-2.6,7.1,7.1,0,0,0-2.3-1.9,8.1,8.1,0,0,0-6.6,0,7.1,7.1,0,0,0-2.3,1.9,9.4,9.4,0,0,0-1.4,2.6,9.3,9.3,0,0,0-.5,2.9" fill="#fff"/>
        <path id="Path_383" data-name="Path 383" d="M271.2,42h6.1v4.2h.1a8.8,8.8,0,0,1,3-3.6,7.7,7.7,0,0,1,4.4-1.4h1.5V47l-1.1-.2h-.9a7.2,7.2,0,0,0-3.5.8,6.5,6.5,0,0,0-2.1,1.9,6.7,6.7,0,0,0-1,2.3,8.1,8.1,0,0,0-.3,1.9V67.3H271V42Z" fill="#fff"/>
      </g>
    </g>
  </g>
</svg>
